<svg version="1.1" id="Layer_1" xmlns="http://www.w3.org/2000/svg" xmlns:xlink="http://www.w3.org/1999/xlink" x="0px" y="0px"
	 width="100%" viewBox="0 0 1024 1024" enable-background="new 0 0 1024 1024" xml:space="preserve">
<path fill="#000000" opacity="1.000000" stroke="none" 
	d="
M1025.000000,551.531372 
	C1022.488831,558.517944 1023.228210,565.481445 1022.520508,572.209351 
	C1020.200928,594.262268 1015.966248,615.944763 1010.656128,637.408875 
	C1005.141785,659.698120 998.051147,681.514343 989.455688,702.839233 
	C972.873352,743.978821 951.506592,782.397949 925.014221,818.002136 
	C874.341125,886.103943 810.698486,938.526855 734.499695,975.719604 
	C693.467468,995.747375 650.358521,1009.681580 605.483704,1018.051636 
	C591.777771,1020.608032 577.946960,1022.445862 564.018066,1023.435852 
	C561.880554,1023.587830 559.776001,1024.205078 557.328125,1024.803589 
	C527.979126,1025.000000 498.958221,1025.000000 469.468658,1025.000000 
	C461.045074,1022.216675 452.615265,1022.584412 444.421600,1021.553101 
	C425.087982,1019.119568 406.081299,1015.216980 387.231323,1010.434692 
	C334.851624,997.145630 285.797241,976.052063 240.231094,947.030640 
	C168.821991,901.549561 111.768600,842.234131 69.270447,768.933167 
	C52.098194,739.314392 37.844143,708.358826 26.995892,675.936157 
	C16.332712,644.066528 8.572904,611.467529 4.585824,577.996887 
	C3.188957,566.270508 2.454850,554.507202 1.120154,542.389160 
	C1.000000,522.979126 1.000000,503.958221 1.000000,484.468658 
	C2.540441,479.664795 2.035238,475.082581 2.334636,470.644257 
	C4.561442,437.633606 10.911636,405.345520 19.902399,373.623260 
	C35.379215,319.016174 59.291340,268.259949 91.845764,221.718674 
	C144.541412,146.382568 212.317719,88.737648 295.404999,49.240025 
	C318.286591,38.362675 341.969757,29.658909 366.230042,22.248726 
	C389.198883,15.233001 412.523804,10.078645 436.145996,6.255014 
	C451.394501,3.786808 466.798584,2.150267 482.627991,1.160231 
	C502.354218,1.000000 521.708435,1.000000 541.531372,1.000001 
	C551.585327,1.902535 561.203552,2.546520 570.749268,3.760275 
	C592.017639,6.464573 613.114136,9.929855 634.014587,15.034080 
	C690.492554,28.826878 742.976074,51.593109 791.697693,83.166359 
	C841.516785,115.450745 884.350891,155.306152 920.509033,202.370255 
	C944.047913,233.008774 963.820557,265.915192 979.814148,301.072296 
	C990.004150,323.471985 998.508728,346.482880 1005.437012,370.137390 
	C1012.225708,393.315399 1017.080078,416.860901 1020.982239,440.637451 
	C1022.757385,451.453430 1022.606689,462.504333 1024.837891,473.648926 
	C1025.000000,499.687561 1025.000000,525.375122 1025.000000,551.531372 
M674.272095,991.756592 
	C705.025757,981.499146 734.514038,968.375854 762.656555,952.300659 
	C821.262390,918.824524 871.330444,875.471191 912.654602,822.073853 
	C959.675598,761.315247 991.415344,693.448059 1007.264832,618.229492 
	C1012.615173,592.838135 1016.690186,567.193542 1017.458801,541.259338 
	C1018.257324,514.316772 1018.787720,487.312714 1015.670471,460.417572 
	C1012.839355,435.991516 1008.811340,411.761414 1002.761902,387.939789 
	C997.320557,366.512909 990.409729,345.495789 982.060852,325.012970 
	C968.119629,290.809845 950.798096,258.415741 929.873413,227.922409 
	C899.247314,183.291443 862.482788,144.493759 819.493103,111.702591 
	C756.079102,63.332371 685.138000,31.660160 606.701416,16.815462 
	C580.812256,11.915758 554.678101,9.352880 528.411804,8.436730 
	C502.268799,7.524879 476.186035,9.090371 450.189514,12.204508 
	C419.542694,15.875699 389.530975,22.500845 360.178375,31.863138 
	C289.610718,54.371372 226.890549,90.667473 172.309982,140.739517 
	C128.444412,180.981628 92.586349,227.490845 65.117867,280.380341 
	C38.414627,331.796387 20.940235,386.115051 13.014002,443.569794 
	C10.279337,463.392517 9.143632,483.284027 8.414019,503.210144 
	C7.927110,516.507996 8.246201,529.829224 9.171070,543.152405 
	C10.230662,558.416260 11.421859,573.661499 13.667859,588.780945 
	C16.888193,610.459351 21.570065,631.868469 27.661184,652.919312 
	C38.518387,690.441711 53.494846,726.298828 72.677818,760.326965 
	C100.075806,808.927490 134.549072,851.896912 176.141418,889.127625 
	C211.756073,921.007446 251.095917,947.261841 294.174255,968.007385 
	C315.832855,978.437561 338.147491,987.163635 361.006775,994.434509 
	C375.374115,999.004333 389.885437,1003.566040 404.673981,1006.242737 
	C419.663849,1008.955811 434.640656,1011.951233 449.819916,1013.889832 
	C462.022461,1015.448303 474.233826,1017.242859 486.462585,1017.486572 
	C520.061279,1018.156189 553.658630,1018.324097 587.019958,1012.698914 
	C605.356018,1009.607178 623.578247,1006.052612 641.604919,1001.593262 
	C652.376709,998.928589 662.901367,995.264832 674.272095,991.756592 
z"/>
<path fill="#000000" opacity="1.000000" stroke="none" 
	d="
M685.883057,797.147583 
	C671.417603,797.069641 666.127136,791.783997 665.675232,777.422852 
	C665.502563,771.933716 665.695862,766.402100 665.060913,760.967224 
	C664.437744,755.632935 661.291260,753.676025 655.953857,754.053711 
	C653.547791,754.223999 652.201050,755.155273 652.190613,757.668335 
	C652.147644,768.000183 652.105042,778.332092 652.046387,788.663879 
	C652.032471,791.115295 653.273865,792.288513 655.650696,792.550903 
	C657.061646,792.706604 658.716125,792.248169 659.921265,794.156616 
	C658.472412,796.789062 655.743164,796.198792 653.507996,796.215332 
	C636.182861,796.343750 618.856812,796.346130 601.531006,796.383423 
	C595.034790,796.397400 588.537537,796.466675 582.042969,796.367432 
	C580.165710,796.338745 577.948792,796.792542 576.699707,794.529785 
	C578.235596,791.329956 582.257935,793.746033 584.517090,790.556091 
	C582.382019,784.481812 580.156555,777.908813 577.746765,771.404114 
	C576.667542,768.491211 573.808716,768.398926 571.384094,768.533875 
	C566.885742,768.784363 562.408020,769.000671 557.905884,768.697205 
	C554.904053,768.494995 552.933655,769.666748 551.926453,772.766907 
	C549.984497,778.743591 547.736572,784.620850 545.694214,790.320007 
	C548.047424,793.134644 551.810120,790.901123 553.641113,793.629456 
	C550.761047,797.455627 536.852966,797.718506 533.279053,794.027405 
	C533.393982,793.723145 533.487183,793.168518 533.635132,793.153564 
	C541.375610,792.369812 542.074280,785.701050 544.076294,780.369202 
	C552.329468,758.389465 560.471069,736.366882 568.473389,714.294739 
	C569.817627,710.586853 571.436890,708.336182 575.805847,708.390930 
	C580.226440,708.446289 582.132324,710.470520 583.573425,714.491821 
	C592.278625,738.782166 601.248169,762.977722 610.150696,787.197205 
	C612.091980,792.478516 621.298523,794.899292 625.714783,791.329590 
	C627.083069,790.223633 626.842163,788.643433 626.842163,787.169678 
	C626.842224,764.171875 626.799072,741.174011 626.849976,718.176331 
	C626.856873,715.072144 626.314636,712.915222 622.532104,713.150452 
	C621.040833,713.243286 619.579102,712.806519 619.013794,711.085571 
	C620.158081,708.930786 622.208313,709.186157 623.886963,709.124146 
	C641.875183,708.459778 659.886108,708.410706 677.748169,710.743835 
	C693.115967,712.751160 700.574646,731.789917 691.255737,744.303955 
	C688.103638,748.536865 682.903198,749.487366 678.545227,751.676331 
	C678.524414,752.686340 679.289490,752.817627 679.877686,752.990967 
	C687.750793,755.310303 690.784607,761.116028 691.287109,768.755920 
	C691.614624,773.735901 691.904663,778.718506 692.258789,783.696533 
	C692.394775,785.607788 691.877441,788.178711 694.684082,788.418945 
	C697.336792,788.645874 698.216553,786.483887 698.818665,784.239197 
	C699.349915,782.258362 699.685120,780.092407 701.720642,778.635193 
	C704.678955,788.787231 698.521057,795.987549 685.883057,797.147583 
M653.186401,749.163635 
	C660.769348,750.504089 666.123535,747.430664 667.344604,740.498596 
	C668.432190,734.324280 669.222778,728.114197 667.723206,721.770142 
	C666.133606,715.045166 661.016296,711.647949 654.423157,713.429810 
	C652.823181,713.862183 652.215881,714.837952 652.222473,716.274414 
	C652.271729,727.034424 651.501831,737.805542 653.186401,749.163635 
M566.718506,738.603516 
	C565.890930,736.922119 564.908325,737.202393 564.378906,738.666748 
	C561.457825,746.745972 558.641968,754.863220 555.706421,763.205017 
	C560.389404,764.630493 564.547607,763.951477 568.622742,764.025818 
	C573.821777,764.120544 574.817688,762.682129 573.199524,757.606689 
	C571.231018,751.432556 569.044861,745.327759 566.718506,738.603516 
z"/>
<path fill="#000000" opacity="1.000000" stroke="none" 
	d="
M369.158447,468.234070 
	C377.394623,460.774017 386.294556,457.609406 396.905426,461.609131 
	C408.643860,466.033844 414.803894,478.011566 411.830536,490.181274 
	C408.860748,502.336243 407.510712,514.654419 409.031586,527.576111 
	C411.365601,526.866150 412.213531,525.204224 413.225586,523.837952 
	C416.595703,519.288391 419.902130,514.691101 423.189026,510.080750 
	C427.287598,504.331970 430.659576,504.430511 434.331299,510.693512 
	C439.215637,519.025085 443.895416,527.476379 448.695038,535.857910 
	C460.527710,556.521179 472.426788,577.146606 484.194946,597.846497 
	C488.098999,604.713684 487.169403,606.479980 479.557159,607.621887 
	C473.803894,608.484924 468.036957,609.256165 462.279785,610.093689 
	C460.843750,610.302551 459.270050,610.196533 457.825500,611.915161 
	C461.765015,615.937927 466.818848,618.105225 471.570740,620.596375 
	C477.914734,623.922241 484.670868,626.335815 491.475708,628.574524 
	C503.561584,632.550598 511.278473,645.185791 508.736450,656.051086 
	C505.128082,671.474304 492.649994,678.629761 479.065460,675.919373 
	C460.088928,672.133179 443.496002,663.039612 427.797058,652.180664 
	C414.836945,643.216309 403.804749,632.127258 393.602478,620.171387 
	C388.663849,614.383972 385.897736,607.795410 385.715057,600.174377 
	C385.669556,598.276978 385.657593,596.296936 383.577545,595.533752 
	C374.018311,592.026184 371.220337,583.412598 368.397827,575.075195 
	C360.798828,552.628601 356.765076,529.649841 359.692657,505.876221 
	C360.768127,497.142517 362.272797,488.457886 363.742706,479.778168 
	C364.449066,475.607178 366.630524,472.009888 369.158447,468.234070 
M487.349640,637.132385 
	C485.294556,636.454468 483.231781,635.798889 481.185577,635.095154 
	C466.684875,630.108459 453.628326,622.573425 442.010986,612.595154 
	C440.091187,610.946228 437.531616,609.188599 438.579346,605.966919 
	C439.639709,602.706238 442.638733,603.072144 445.250854,602.749512 
	C452.170013,601.894836 459.010315,600.501831 466.041870,600.401123 
	C468.324677,600.368530 471.032227,600.097900 473.393494,597.662170 
	C458.361145,572.066345 444.165894,545.908325 428.089294,519.805847 
	C421.790253,528.349731 416.407043,535.731567 410.923676,543.038269 
	C409.348907,545.136658 407.723969,547.610474 404.484314,546.739136 
	C401.228638,545.863464 400.254395,543.077087 399.993073,540.173035 
	C398.604858,524.745850 397.733826,509.347351 401.435944,494.040283 
	C402.392761,490.084290 403.945648,486.060669 402.934570,481.814087 
	C401.194916,474.507599 394.727051,469.295502 387.467896,469.319824 
	C380.042114,469.344696 374.531769,474.177032 372.623077,483.017548 
	C366.250000,512.535583 366.594116,541.732788 376.652710,570.568604 
	C379.406281,578.462524 382.944763,585.076782 391.110809,588.493164 
	C394.774658,590.026001 396.159058,592.972107 395.813782,597.393005 
	C395.374664,603.014832 396.583344,608.523743 400.379120,613.265686 
	C420.862488,638.855164 446.980072,656.165833 477.989075,666.279968 
	C485.634491,668.773621 491.629791,666.885437 495.849670,661.258911 
	C500.614868,654.905273 500.832184,650.358826 496.697906,643.812256 
	C494.644775,640.561157 491.652618,638.572327 487.349640,637.132385 
z"/>
<path fill="#000000" opacity="1.000000" stroke="none" 
	d="
M542.147827,674.258057 
	C532.987488,668.200562 527.638794,660.254944 528.927063,649.372803 
	C530.210632,638.530273 537.001709,631.709778 547.133789,628.363525 
	C556.342163,625.322327 565.325500,621.877319 573.525757,616.628479 
	C575.874084,615.125427 578.441650,613.864258 580.263550,611.163208 
	C577.772400,609.664673 575.062683,609.590942 572.555603,609.501953 
	C567.199280,609.311829 561.971497,608.469055 556.726379,607.495422 
	C551.468872,606.519470 550.096741,604.342346 552.666870,599.322693 
	C555.927246,592.954895 559.608093,586.799438 563.186462,580.597961 
	C576.499634,557.525757 589.887024,534.496399 603.153442,511.397491 
	C607.290894,504.193604 609.895020,503.939758 614.962891,510.806000 
	C619.304199,516.687988 623.517212,522.664673 628.161072,529.119446 
	C629.678406,526.308899 629.598572,523.731689 629.594116,521.195007 
	C629.574646,510.008331 627.943176,499.049896 625.643860,488.097900 
	C622.934082,475.191132 631.682129,463.542603 645.896484,460.118500 
	C656.901917,457.467438 670.013123,465.274231 673.062561,476.822479 
	C675.345642,485.468903 677.309204,494.209290 677.424500,503.293274 
	C677.487305,508.245209 679.144775,513.188843 679.103943,518.128113 
	C678.926941,539.563171 675.227844,560.378479 667.383362,580.417908 
	C664.837585,586.921448 660.926331,592.035339 654.552368,595.020020 
	C652.311218,596.069458 651.087891,597.590576 651.269348,600.046570 
	C652.083740,611.068787 645.952942,618.929504 639.111389,626.337891 
	C618.619812,648.526978 594.407288,665.105103 565.486572,674.378418 
	C557.888489,676.814758 550.167847,677.478210 542.147827,674.258057 
M638.342773,521.497559 
	C638.086914,528.439514 639.119080,535.438660 636.477661,542.241882 
	C634.544495,547.221069 631.409485,548.170105 627.743164,544.089783 
	C625.528809,541.625427 623.807922,538.724243 621.772034,536.091553 
	C617.746948,530.886414 614.471558,525.056702 609.057800,520.273438 
	C593.949646,546.343140 579.075012,572.009888 564.356934,597.406494 
	C566.046753,599.336609 567.365662,599.497864 568.693115,599.667725 
	C576.759521,600.699219 584.833435,601.679138 592.884583,602.818909 
	C595.089294,603.131104 597.882935,602.803284 598.974792,605.385681 
	C600.198303,608.279297 597.877380,609.944214 596.130920,611.719360 
	C592.366211,615.545776 587.891113,618.453430 583.558594,621.553833 
	C572.574036,629.414490 559.864685,633.492493 547.486755,638.394531 
	C537.840210,642.214844 535.394165,652.828308 541.781128,660.995728 
	C546.486816,667.013306 552.712952,668.185974 559.722595,666.068787 
	C587.843140,657.574890 611.341370,641.896240 631.367126,620.541687 
	C638.261597,613.189697 643.644897,605.745605 641.754761,595.012939 
	C641.225281,592.006470 643.400513,590.725281 645.686462,589.362122 
	C650.819946,586.300903 656.231201,583.387024 658.419861,577.236328 
	C660.590820,571.135193 663.029724,565.091553 664.655396,558.841736 
	C669.125671,541.654663 670.386780,524.207764 668.792542,506.454956 
	C667.969543,497.290253 666.513489,488.300781 664.114197,479.484985 
	C662.193604,472.427948 653.170532,467.947266 646.016418,469.942352 
	C638.298584,472.094696 632.649048,480.334198 634.713989,487.417175 
	C637.879883,498.276459 638.786682,509.290771 638.342773,521.497559 
z"/>
<path fill="#000000" opacity="1.000000" stroke="none" 
	d="
M588.917542,376.941406 
	C604.768372,384.691437 618.989990,394.083252 631.475342,406.146515 
	C642.115479,416.426849 643.300415,430.205109 633.884216,440.898865 
	C624.651978,451.383667 610.092651,452.363800 599.068848,442.861450 
	C590.075195,435.109100 580.910828,427.694855 570.056274,422.661713 
	C569.177490,422.254242 568.240356,421.972534 566.994873,421.507019 
	C566.239990,424.830200 568.017273,427.188904 569.045837,429.620453 
	C571.121338,434.526794 573.496826,439.305420 575.692078,444.162262 
	C577.868530,448.977539 576.469604,451.402313 571.154602,451.860199 
	C568.503906,452.088562 565.825745,452.047180 563.160034,452.046021 
	C533.328186,452.033051 503.496338,452.004272 473.664490,451.978668 
	C472.831207,451.977966 471.997833,451.972198 471.164703,451.957031 
	C459.720978,451.748718 459.088837,450.850372 463.416901,440.005951 
	C465.266876,435.370667 467.463348,430.874115 469.481323,426.305237 
	C470.127930,424.841125 471.322662,423.484344 470.476624,421.421478 
	C466.282684,422.289246 462.956207,424.849487 459.490692,426.993439 
	C452.543976,431.290894 445.957764,436.052673 440.163879,441.914551 
	C428.069122,454.151245 409.400574,451.795349 400.562164,437.080261 
	C395.220581,428.187042 396.723480,415.652863 404.219269,408.513916 
	C428.430725,385.454987 456.574768,369.784058 489.617828,363.446198 
	C498.630249,361.717529 507.695343,359.526306 515.876648,366.240509 
	C517.220337,367.343231 519.260315,367.213928 520.629089,366.173248 
	C530.274536,358.840240 540.568787,362.162262 550.807861,364.133270 
	C563.963745,366.665741 576.482178,371.082855 588.917542,376.941406 
M417.544800,409.061951 
	C413.351562,412.587036 408.658752,415.773346 407.331268,421.559540 
	C405.785034,428.299316 408.731018,435.256012 414.202484,438.385895 
	C420.947784,442.244476 426.391052,441.681549 432.394928,436.124939 
	C445.367065,424.119202 459.801514,414.470276 476.440887,408.298798 
	C478.877563,407.394989 481.452789,405.733643 483.850494,408.196747 
	C486.264740,410.676849 485.175018,413.494873 484.078461,416.135529 
	C481.973175,421.205475 479.666718,426.192810 477.609985,431.281586 
	C476.206665,434.753662 473.927002,437.926086 473.476318,442.454895 
	C503.744385,442.454895 533.693970,442.454895 563.716187,442.454895 
	C564.094177,440.532898 563.175354,439.294464 562.590637,437.943604 
	C559.153931,430.004425 555.751953,422.050201 552.340759,414.099976 
	C551.533813,412.219299 550.727844,410.180847 552.403625,408.503784 
	C554.039001,406.867218 556.185486,406.550873 558.431030,407.420227 
	C559.671509,407.900482 560.965149,408.244781 562.201355,408.734833 
	C577.507568,414.802856 591.611877,422.824066 603.410400,434.481598 
	C607.316833,438.341309 611.681030,440.344116 617.305237,439.761414 
	C626.437561,438.815216 633.114441,428.124603 629.828308,419.654602 
	C627.645325,414.028137 622.881104,410.848206 618.625061,407.187317 
	C597.700562,389.188812 573.413025,378.120514 546.522705,372.557678 
	C538.440369,370.885712 530.296448,369.821899 523.218201,375.735748 
	C519.833069,378.564026 516.765137,378.179260 513.363342,375.605133 
	C507.886353,371.460541 501.734589,370.618134 494.926849,371.765625 
	C465.747864,376.683929 440.252808,389.140686 417.544800,409.061951 
z"/>
<path fill="#000000" opacity="1.000000" stroke="none" 
	d="
M498.960419,709.653198 
	C504.219788,710.166565 508.977020,710.850220 513.564026,712.484436 
	C525.970886,716.904480 532.919067,725.761108 535.676147,738.517395 
	C538.106689,749.762573 537.264832,760.717651 533.716797,771.471680 
	C530.565063,781.024414 523.988281,787.488159 514.647034,791.358887 
	C505.559753,795.124268 496.024506,796.547424 486.369507,796.789612 
	C476.078369,797.047729 465.766174,796.518555 455.464905,796.262634 
	C453.901733,796.223755 451.615234,796.564148 451.548676,794.253845 
	C451.481110,791.909607 453.799530,792.127625 455.342285,792.100708 
	C458.607635,792.043884 459.644409,790.369629 459.639343,787.341675 
	C459.600922,764.351257 459.606567,741.360596 459.657532,718.370178 
	C459.664246,715.339905 458.391907,713.735352 455.390137,713.298706 
	C453.821777,713.070618 451.913818,713.050476 451.682251,709.424011 
	C467.317993,708.125610 482.900757,708.489319 498.960419,709.653198 
M484.307526,759.500000 
	C484.314972,768.331848 484.342133,777.163757 484.321106,785.995544 
	C484.311340,790.084229 485.960297,792.031738 490.366577,791.898865 
	C499.346893,791.627869 506.221954,786.319214 508.444153,776.212585 
	C511.912659,760.438110 511.803070,744.493103 508.651276,728.656860 
	C506.408905,717.390259 501.316345,713.749878 489.802094,713.923828 
	C485.758972,713.984924 484.192230,715.354736 484.250214,719.507324 
	C484.431702,732.502563 484.311096,745.502136 484.307526,759.500000 
z"/>
<path fill="#000000" opacity="1.000000" stroke="none" 
	d="
M247.614044,754.970398 
	C247.081741,740.236084 250.060059,726.973877 261.352875,717.460266 
	C274.684631,706.229004 290.281372,705.537415 306.060028,711.237122 
	C320.505859,716.455444 326.547729,728.155212 328.432159,742.776672 
	C329.711426,752.702454 329.233551,762.393860 326.290894,771.894470 
	C322.361359,784.581299 313.697174,792.198425 300.782928,795.346619 
	C292.332367,797.406555 284.068085,797.308655 275.615753,795.367249 
	C257.376709,791.178040 248.982925,777.874268 247.683044,760.455444 
	C247.559372,758.797974 247.633453,757.125793 247.614044,754.970398 
M302.723969,769.352661 
	C302.407410,754.402405 303.830750,739.404968 301.726257,724.506470 
	C300.406036,715.160156 294.506622,710.881653 285.278748,712.235168 
	C279.421997,713.094238 275.420776,717.560852 274.405945,724.796265 
	C272.129822,741.024414 273.440308,757.342224 273.502319,773.620605 
	C273.515991,777.210754 274.528412,780.865540 275.515381,784.368103 
	C277.141388,790.138367 282.715637,793.859863 288.816986,793.650696 
	C294.926971,793.441223 299.250824,789.804688 300.797882,783.588379 
	C301.883606,779.225647 302.830780,774.844421 302.723969,769.352661 
z"/>
<path fill="#000000" opacity="1.000000" stroke="none" 
	d="
M608.760132,199.959503 
	C615.873230,185.379776 627.369568,178.276123 643.118652,177.844009 
	C649.300049,177.674408 655.416626,177.785629 661.310181,180.110764 
	C674.332153,185.248199 681.994507,194.622879 684.431335,208.442398 
	C686.157715,218.232697 686.128174,227.955780 684.043457,237.649048 
	C680.537476,253.951080 666.994568,265.366669 649.913391,266.255676 
	C640.701843,266.735107 631.750427,265.719269 623.232239,261.522766 
	C614.345093,257.144501 609.134705,249.980606 606.481750,240.850342 
	C602.501343,227.151337 603.004822,213.567413 608.760132,199.959503 
M658.541138,192.237167 
	C655.237183,183.574905 651.262390,180.693130 643.530273,181.353958 
	C637.088867,181.904480 632.926941,186.436020 631.154419,194.385376 
	C630.273071,198.338211 630.217285,202.317734 630.183289,206.293930 
	C630.058350,220.918365 629.079224,235.576477 631.324219,250.132706 
	C632.715515,259.153625 638.119141,263.560425 646.682800,262.899750 
	C653.751831,262.354370 657.737671,258.118439 658.579224,249.315033 
	C660.370605,230.575150 660.273315,211.808212 658.541138,192.237167 
z"/>
<path fill="#000000" opacity="1.000000" stroke="none" 
	d="
M456.923035,224.180725 
	C459.306183,228.785141 461.517151,233.060852 463.845917,237.564407 
	C465.135895,236.406693 464.640656,235.049347 464.644196,233.910461 
	C464.690948,218.918854 464.579468,203.925858 464.755341,188.936111 
	C464.803650,184.817261 464.629700,181.526749 459.260040,181.940750 
	C458.994507,181.961212 458.655029,181.666397 458.434052,181.437302 
	C458.217255,181.212585 458.107880,180.884277 457.565277,179.903885 
	C463.760712,178.120193 469.621185,178.358383 475.931671,179.603088 
	C475.448120,180.666992 475.266571,181.445740 475.067139,181.450333 
	C468.291595,181.606674 469.139923,186.397827 469.150330,190.868378 
	C469.203400,213.688995 469.082855,236.510513 469.258911,259.329895 
	C469.292603,263.693939 468.071320,265.987213 463.480988,265.778442 
	C462.654602,265.740845 461.806732,265.801666 460.991791,265.946564 
	C454.147400,267.163330 450.269409,264.512390 447.064148,258.052521 
	C436.557373,236.877411 425.277039,216.085907 414.270752,195.159180 
	C413.295288,193.304550 412.150604,191.538940 410.245361,189.921906 
	C410.245361,199.013458 410.246063,208.105011 410.245178,217.196564 
	C410.243958,229.689682 410.340820,242.184052 410.183411,254.675217 
	C410.131226,258.816071 410.118927,262.437103 415.658325,262.497620 
	C416.294006,262.504547 416.788055,263.132996 416.721161,264.682892 
	C411.031342,265.769104 405.271423,265.771088 399.320709,264.861816 
	C399.545013,263.841003 399.582642,263.271362 399.685333,263.259399 
	C406.351074,262.481934 406.044800,257.920135 405.987549,252.792358 
	C405.755127,231.973206 405.832184,211.149857 405.917877,190.328537 
	C405.935516,186.044846 406.438690,181.806625 400.273743,181.669434 
	C399.963470,181.662537 399.668640,180.959579 399.336975,180.543518 
	C400.171478,178.022064 402.317657,178.790466 403.937775,178.770081 
	C412.431915,178.663177 420.930054,178.801895 429.421875,178.621872 
	C432.535400,178.555862 434.200348,179.761261 435.578247,182.502441 
	C442.532562,196.337540 449.674622,210.078232 456.923035,224.180725 
z"/>
<path fill="#000000" opacity="1.000000" stroke="none" 
	d="
M470.936707,484.994080 
	C484.219635,470.085022 501.573792,469.363556 515.620117,483.120819 
	C518.382446,485.826263 519.977173,485.581207 522.473694,483.010040 
	C531.767883,473.438110 543.257935,470.259338 555.251282,475.790314 
	C567.745300,481.552124 574.592346,492.304626 574.473755,506.543579 
	C574.296753,527.778992 563.667847,543.697815 548.321899,557.171997 
	C540.772095,563.800903 532.605591,569.451965 523.554443,573.847412 
	C520.304199,575.425842 517.255859,575.599060 514.035950,573.855408 
	C493.706573,562.846802 475.957306,549.159851 467.142914,526.814697 
	C461.512207,512.540405 460.651947,498.359680 470.936707,484.994080 
M534.167847,556.655640 
	C548.911194,545.418945 561.306702,532.663391 564.815430,513.322754 
	C566.938599,501.619385 561.910522,489.803772 551.357117,484.330505 
	C546.280701,481.697693 541.245544,481.469055 536.176392,484.582947 
	C530.627441,487.991547 526.045410,492.175903 523.976746,498.560944 
	C523.064209,501.377350 521.462646,503.178528 518.292419,503.212769 
	C515.312683,503.244934 515.139099,500.720093 514.220703,498.871674 
	C513.332031,497.083038 512.613220,495.196167 511.589478,493.490723 
	C506.636505,485.239716 495.131287,480.157440 488.196411,483.075073 
	C476.205444,488.119812 469.753235,502.311676 472.971008,514.951172 
	C477.591187,533.099060 488.472992,546.594299 503.743927,556.496643 
	C521.555725,568.046631 516.474670,567.685730 534.167847,556.655640 
z"/>
<path fill="#000000" opacity="1.000000" stroke="none" 
	d="
M199.382324,734.707458 
	C206.527649,737.068604 213.354462,739.201721 220.104080,741.556213 
	C234.545731,746.593994 241.421402,757.634827 239.178024,771.950195 
	C236.874161,786.651611 225.389038,796.786804 210.713577,797.097595 
	C203.664749,797.246826 196.843765,795.567566 189.945221,794.533569 
	C186.155945,793.965637 182.388474,793.070679 179.470169,796.996033 
	C179.035095,796.847900 178.600021,796.699768 178.164948,796.551636 
	C178.164948,786.748779 178.164948,776.945923 178.164948,766.745178 
	C180.871582,768.307312 181.741089,771.100891 183.281662,773.322083 
	C187.265671,779.066345 191.211731,784.839050 196.788177,789.226318 
	C201.629364,793.035217 207.138046,794.382996 213.203781,793.604309 
	C219.480713,792.798645 223.974182,789.425964 224.768219,784.945557 
	C226.235733,776.665039 224.524979,772.928894 217.657059,769.351318 
	C211.865768,766.334595 205.615097,764.541687 199.451660,762.525696 
	C195.483917,761.227783 191.497192,759.919128 188.103867,757.449646 
	C177.546082,749.766479 175.812286,741.556946 178.314240,728.262817 
	C180.363159,717.375732 190.007156,709.811401 200.916550,708.696167 
	C207.445679,708.028748 213.889694,708.397705 220.178436,710.223999 
	C224.223343,711.398804 228.152832,712.601868 231.997086,709.872986 
	C234.339417,715.182251 234.651428,731.037964 232.476929,735.382996 
	C229.899414,733.282776 228.833557,730.200806 227.038193,727.695984 
	C223.822983,723.210205 220.461212,718.921753 216.040848,715.522156 
	C209.918259,710.813599 203.281082,710.910339 196.701492,713.859070 
	C189.053818,717.286377 188.375107,727.310913 195.205750,732.233765 
	C196.415375,733.105652 197.751251,733.802246 199.382324,734.707458 
z"/>
<path fill="#000000" opacity="1.000000" stroke="none" 
	d="
M403.233673,774.869019 
	C401.738586,780.690430 402.537994,786.261414 401.730652,791.706177 
	C401.260742,794.875122 400.184082,796.399353 396.731262,796.371155 
	C378.080841,796.218933 359.429016,796.248230 340.777954,796.154541 
	C339.075714,796.145996 337.026733,796.527954 336.156464,794.295227 
	C336.329163,793.940002 336.455963,793.410522 336.609131,793.402771 
	C342.779999,793.091248 343.054260,789.138123 343.003510,784.175781 
	C342.787109,763.027954 342.801392,741.875854 342.977936,720.727417 
	C343.015015,716.286926 342.804413,712.770752 337.255005,712.521667 
	C336.660309,712.494934 336.088715,711.952820 335.761261,711.782410 
	C336.697601,708.640015 338.822784,709.052917 340.480591,709.042236 
	C352.636108,708.964172 364.792511,708.975159 376.948273,709.031616 
	C378.503296,709.038818 380.794800,708.721863 380.820343,711.046631 
	C380.845917,713.376465 378.580750,713.023376 376.999786,713.141846 
	C367.042084,713.887756 367.406006,713.865662 367.689178,723.844543 
	C368.246399,743.483215 368.106873,763.131775 367.445160,782.774353 
	C367.128021,792.187683 370.893402,794.621521 379.807892,790.828918 
	C387.941132,787.368774 392.668579,780.598511 396.756348,773.173645 
	C398.093628,770.744690 398.579681,767.387573 402.364838,766.629211 
	C404.102661,769.182007 403.048218,771.887695 403.233673,774.869019 
z"/>
<path fill="#000000" opacity="1.000000" stroke="none" 
	d="
M343.953369,178.677948 
	C347.793335,178.958649 351.320831,178.020889 354.483093,179.675705 
	C354.280273,181.978333 352.793335,182.233139 351.563324,182.115555 
	C346.749359,181.655350 346.274902,184.358948 346.313416,188.255219 
	C346.466522,203.739197 346.294769,219.226273 346.426605,234.710648 
	C346.463318,239.018341 346.839355,243.370819 347.569305,247.615112 
	C349.151031,256.812042 354.288727,261.328400 363.006775,261.687134 
	C372.510529,262.078125 380.102234,256.943451 382.518890,248.530685 
	C383.916809,243.664337 383.944794,238.670914 383.948090,233.679977 
	C383.957855,218.860596 383.824524,204.040100 383.979187,189.222458 
	C384.024353,184.895386 383.717316,181.527985 378.120758,182.053787 
	C377.309784,182.129990 376.526093,181.628738 376.276978,180.679291 
	C379.587982,178.005493 390.926636,177.844238 394.596893,180.464325 
	C394.365509,180.879410 394.137085,181.666687 393.893280,181.671494 
	C387.476044,181.797729 388.141663,186.243652 388.081848,190.630692 
	C387.845856,207.932098 388.857208,225.240921 387.417267,242.539536 
	C386.270050,256.321655 378.486389,264.792908 364.399445,266.144684 
	C356.441345,266.908386 348.462646,266.657990 340.691345,264.108429 
	C329.219910,260.344940 323.342255,252.074356 322.581024,239.954697 
	C321.598419,224.310760 321.961304,208.678436 321.870758,193.036606 
	C321.841980,188.068268 324.831543,181.121170 314.436066,180.939529 
	C319.702789,177.751007 324.468323,178.952789 328.977966,178.733994 
	C333.795471,178.500229 338.632965,178.679016 343.953369,178.677948 
z"/>
<path fill="#000000" opacity="1.000000" stroke="none" 
	d="
M808.007019,796.270264 
	C802.440552,795.782471 797.099976,797.231506 791.801819,794.642395 
	C794.241394,791.451843 797.393494,793.528198 800.218018,791.802246 
	C797.718628,784.662231 795.202087,777.365906 792.596741,770.101501 
	C791.892822,768.138794 790.035034,768.222473 788.365845,768.217346 
	C782.869873,768.200623 777.371704,768.314819 771.878723,768.188843 
	C769.044739,768.123840 767.685364,769.454834 766.837830,771.985107 
	C765.147217,777.032043 763.446411,782.088806 761.419617,787.005493 
	C759.831360,790.858459 760.633667,792.692383 764.945129,792.710266 
	C766.205505,792.715454 767.668579,792.499695 768.960266,794.977417 
	C762.040588,796.870667 755.508789,796.085571 748.507507,795.691345 
	C748.992737,794.326355 749.114990,793.522888 749.308289,793.505432 
	C755.093018,792.982544 756.341736,788.448486 757.958557,784.062439 
	C766.591553,760.642883 775.352905,737.270447 783.936218,713.832764 
	C785.091736,710.677734 786.372192,708.671204 790.202332,708.852051 
	C793.939758,709.028442 796.707764,709.434570 798.234985,713.733643 
	C806.423035,736.782654 814.917358,759.722778 823.300049,782.702637 
	C825.061218,787.530640 825.501892,793.404053 832.850281,794.439758 
	C824.643005,796.973633 816.515381,795.973206 808.007019,796.270264 
M771.666382,764.387329 
	C777.698425,764.387329 783.730530,764.387329 790.601013,764.387329 
	C787.274292,754.239807 784.215271,744.908997 780.801086,734.494690 
	C778.924011,739.445862 777.208313,743.212463 776.073181,747.146545 
	C774.447510,752.780457 770.946655,757.858337 771.666382,764.387329 
z"/>
<path fill="#000000" opacity="1.000000" stroke="none" 
	d="
M555.689941,185.747192 
	C556.681152,180.743103 558.707947,178.012497 564.188599,178.531601 
	C567.724487,178.866516 569.447327,180.014160 570.647461,183.350464 
	C579.099548,206.847900 587.770081,230.266693 596.296692,253.737518 
	C597.942017,258.266571 598.875305,263.243164 605.311218,264.133789 
	C591.629944,266.915253 578.230591,265.723938 564.176575,265.081726 
	C566.009399,260.728302 569.727051,263.002594 572.519958,260.723816 
	C570.008911,253.621796 567.448486,246.160156 564.698364,238.769104 
	C564.075134,237.094330 562.196838,237.402115 560.715027,237.400314 
	C555.549133,237.394028 550.380188,237.525223 545.218445,237.384323 
	C542.303223,237.304733 540.649597,238.320953 539.686035,241.180008 
	C537.465637,247.768494 534.967285,254.263290 532.634644,260.651001 
	C535.147949,263.181763 539.118774,260.538391 541.301636,264.595856 
	C534.356873,265.689362 527.979187,265.946411 521.145508,263.824860 
	C530.657349,262.257477 530.268066,253.966843 532.588928,247.924652 
	C540.469116,227.409698 547.949951,206.741348 555.689941,185.747192 
M552.026489,206.942795 
	C548.971924,215.661331 545.917358,224.379868 542.685486,233.604553 
	C549.817017,233.604553 556.180664,233.604553 563.149353,233.604553 
	C559.807312,223.578934 556.640076,214.077606 553.179260,203.695648 
	C552.638306,205.185303 552.429810,205.759415 552.026489,206.942795 
z"/>
<path fill="#000000" opacity="1.000000" stroke="none" 
	d="
M440.342529,757.000122 
	C440.344299,766.824768 440.465729,776.151733 440.291138,785.473083 
	C440.218140,789.371765 440.507355,792.497620 445.475372,792.534119 
	C446.286224,792.540039 447.032227,793.110901 447.129822,794.116699 
	C443.800781,797.332947 413.064392,797.377197 408.621124,793.618225 
	C418.197784,792.554749 415.599152,785.604919 415.626434,780.074341 
	C415.724121,760.259888 415.614502,740.444458 415.672180,720.629700 
	C415.683807,716.635376 415.986603,712.745728 410.339874,712.534180 
	C409.557922,712.504883 408.854553,711.805908 408.913361,710.631409 
	C409.883881,708.971375 411.746704,709.271362 413.266571,709.195679 
	C423.246887,708.698669 433.236298,708.593262 443.222473,709.038330 
	C444.785309,709.107971 447.010345,708.697083 447.266632,710.942078 
	C447.533966,713.283508 445.286804,713.334106 443.730072,713.491821 
	C440.029358,713.866516 440.360107,716.546448 440.355927,719.034729 
	C440.335052,731.523193 440.344086,744.011597 440.342529,757.000122 
z"/>
<path fill="#000000" opacity="1.000000" stroke="none" 
	d="
M487.546661,255.245102 
	C487.409302,234.361145 487.296173,213.901520 487.080017,193.442993 
	C487.026123,188.338547 489.173096,182.092361 480.711090,180.180084 
	C493.731140,178.270187 506.228638,178.311249 519.073730,179.337585 
	C518.639404,180.642242 518.562561,181.199661 518.434265,181.211777 
	C511.745209,181.842621 512.106079,186.494202 512.145752,191.461716 
	C512.302795,211.097672 512.066040,230.737259 512.289429,250.371918 
	C512.348389,255.558899 508.891815,262.993225 519.604614,263.759521 
	C506.248596,266.709381 493.759277,266.342316 480.875580,264.234070 
	C485.159119,262.670349 488.641418,260.870361 487.546661,255.245102 
z"/>
<path fill="#000000" opacity="1.000000" stroke="none" 
	d="
M739.336304,739.000122 
	C739.334839,753.479431 739.253845,767.459351 739.373108,781.437622 
	C739.417175,786.598328 736.847107,793.307556 746.329285,793.627747 
	C742.516846,796.933472 713.598267,797.377197 707.754822,794.734192 
	C707.584290,793.915283 708.176636,793.306274 708.725586,793.289734 
	C714.457336,793.116333 714.802795,789.585266 714.758240,784.912476 
	C714.552307,763.279785 714.603149,741.643738 714.725708,720.009766 
	C714.748352,716.013916 714.718201,712.625000 709.475708,712.479553 
	C708.703918,712.458130 707.966980,711.793335 707.994019,709.751099 
	C720.757996,708.649902 733.549072,708.377136 746.280823,709.630249 
	C746.420898,711.177185 746.305359,712.021790 745.569214,712.077454 
	C739.369019,712.545959 738.981934,716.572266 739.264954,721.529480 
	C739.586914,727.169312 739.337280,732.841797 739.336304,739.000122 
z"/>
<path fill="#000000" opacity="1.000000" stroke="none" 
	d="
M656.081604,627.439941 
	C655.392273,621.634949 654.214600,616.422729 655.450317,610.770813 
	C658.561096,596.543335 670.181519,586.164368 685.668274,584.734985 
	C698.919800,583.511841 711.979980,592.500549 717.570251,605.065247 
	C725.020691,621.810608 714.690613,642.617004 698.941895,648.166199 
	C681.246521,654.401245 662.855774,645.895813 656.081604,627.439941 
M673.988892,598.421631 
	C664.785339,604.667175 663.558533,613.920471 665.419312,623.649658 
	C667.181458,632.863220 673.702820,638.065796 682.675354,640.305847 
	C696.649475,643.794556 712.917480,630.330261 711.180359,616.690186 
	C708.777771,597.825195 691.340210,588.927795 673.988892,598.421631 
z"/>
<path fill="#000000" opacity="1.000000" stroke="none" 
	d="
M343.134338,585.743164 
	C361.438568,581.026428 382.607574,596.407288 382.737732,616.378174 
	C382.853058,634.079407 369.225586,649.686890 350.724823,650.302551 
	C336.669861,650.770264 321.714172,639.525269 318.674316,626.279480 
	C314.830658,609.531372 322.080536,594.370422 337.085785,587.868774 
	C338.915375,587.075989 340.841187,586.505310 343.134338,585.743164 
M350.498932,640.787903 
	C364.236206,640.259460 373.737823,630.121948 373.680359,616.055115 
	C373.634399,604.802734 362.816559,594.571899 350.691772,594.313904 
	C338.626678,594.057190 327.465851,604.070251 327.094055,615.484863 
	C326.638123,629.480957 335.890350,639.868530 350.498932,640.787903 
z"/>
<path fill="#000000" opacity="1.000000" stroke="none" 
	d="
M518.955994,293.686890 
	C539.287903,294.810272 551.212036,308.342896 550.975220,326.563141 
	C550.741455,344.545746 536.888306,358.983704 517.395996,358.522949 
	C499.135986,358.091278 486.197418,343.385376 485.858521,325.895447 
	C485.519409,308.397217 500.506958,293.976135 518.955994,293.686890 
M509.031464,347.750671 
	C515.073792,349.460938 521.240112,349.737946 527.177002,347.829559 
	C542.650879,342.855713 545.798340,322.100739 537.275330,311.763580 
	C531.800659,305.123627 524.287354,301.169250 515.241272,302.766266 
	C505.247131,304.530670 496.806641,313.175110 495.326630,322.089325 
	C493.890411,330.739502 498.622284,343.382355 509.031464,347.750671 
z"/>
<path fill="#000000" opacity="1.000000" stroke="none" 
	d="
M600.259155,860.077759 
	C597.662231,857.292053 595.052490,856.127502 592.213745,858.800232 
	C590.562439,860.354797 589.134216,861.978271 586.649536,860.938965 
	C584.106079,859.875000 584.744507,857.341614 584.264893,854.873535 
	C582.399109,855.982788 582.269592,858.549377 580.206360,858.954102 
	C577.734009,859.032898 578.016052,855.705444 575.817017,855.384766 
	C573.851685,856.652039 576.083252,859.916870 572.708740,860.937256 
	C570.399048,856.223206 573.989441,851.683167 572.151123,846.521545 
	C576.911621,847.956787 576.774048,852.365173 579.875610,853.988586 
	C583.286438,852.980713 582.898499,848.425171 586.124695,846.656189 
	C588.495667,849.930420 586.514282,853.841736 587.835815,857.379150 
	C590.973816,856.645874 590.508423,853.734741 591.605469,851.931519 
	C592.753723,850.043823 592.765259,846.894348 595.749084,846.919800 
	C598.778870,846.945679 598.778137,849.935059 599.627075,852.020325 
	C600.455933,854.056152 600.652527,856.527100 603.348206,858.109375 
	C605.357300,853.624268 600.771362,844.776001 611.043091,846.634949 
	C619.188843,848.109131 613.226501,854.535461 615.302979,858.909363 
	C619.920227,855.541138 615.617920,850.015076 619.059326,846.374146 
	C622.989990,849.623901 618.971375,854.511963 621.653931,858.001587 
	C625.971436,855.158997 623.922852,848.486450 629.338196,845.966492 
	C632.585083,850.404053 634.498535,855.238220 636.043518,861.054138 
	C630.302795,857.745728 630.451538,858.187927 623.007568,860.692139 
	C618.369446,862.252441 613.101379,862.651123 609.615417,857.317566 
	C606.695129,859.185181 604.671753,863.285950 600.259155,860.077759 
M612.418945,850.977722 
	C610.940369,848.927673 609.153503,848.583435 607.694580,850.731812 
	C606.737610,852.141052 607.450562,853.703491 609.138489,854.273315 
	C611.410645,855.040405 612.605530,854.071289 612.418945,850.977722 
z"/>
<path fill="#000000" opacity="1.000000" stroke="none" 
	d="
M555.743042,169.385712 
	C551.331726,167.778641 549.570801,172.778046 546.029785,172.749084 
	C545.046265,159.916199 554.572205,152.481018 565.929749,156.993500 
	C567.785339,157.730743 569.602295,158.587906 571.500183,159.191376 
	C576.159851,160.673050 580.352722,160.230804 583.817505,155.785904 
	C584.307434,161.317398 582.291321,165.967453 579.115356,170.066788 
	C576.639771,173.262100 573.020752,173.917816 569.155884,172.912354 
	C564.810913,171.782013 560.480896,170.594345 555.743042,169.385712 
z"/>
<path fill="#000000" opacity="1.000000" stroke="none" 
	d="
M669.707214,851.352783 
	C671.015503,853.784058 671.196289,856.473999 673.760864,858.185669 
	C675.672913,854.377136 673.815430,850.412109 675.107849,846.163147 
	C679.128784,849.740662 676.153442,854.433411 678.216064,858.190918 
	C682.154785,855.130798 681.688171,849.523315 685.860291,846.226746 
	C689.183105,850.713684 691.071899,855.458313 692.185608,860.913940 
	C688.030212,856.809875 684.720398,856.057068 680.182312,860.447083 
	C678.041016,862.518555 673.437073,862.540222 670.634216,859.495178 
	C667.874695,856.497070 665.283813,856.822327 662.472351,859.200745 
	C658.476440,862.580994 656.464417,862.127747 653.575012,856.800781 
	C648.984985,861.961487 647.890930,855.847107 645.183228,853.977722 
	C644.544678,856.309326 646.772644,858.825012 643.591675,861.007690 
	C641.747131,856.249939 641.655212,851.852051 642.917175,847.178772 
	C647.324097,847.908142 647.224854,852.151794 649.823547,854.042908 
	C653.284851,853.057312 652.714111,848.180969 656.359131,846.921204 
	C659.538269,850.379028 657.229370,854.623413 658.025879,858.693237 
	C661.846008,857.171448 661.136292,853.536682 662.529968,851.198853 
	C663.534363,849.513855 663.805725,847.036194 666.222961,847.069763 
	C668.378662,847.099670 668.727966,849.429688 669.707214,851.352783 
z"/>
<path fill="#000000" opacity="1.000000" stroke="none" 
	d="
M520.077209,846.649414 
	C522.320618,846.848511 524.584595,846.132141 525.375671,848.698853 
	C524.151245,850.684631 522.579895,849.523376 521.223572,849.492554 
	C518.159973,849.422913 516.516724,850.880249 516.384766,853.915405 
	C516.253113,856.943726 517.705505,858.532288 520.813660,858.698120 
	C524.646179,858.902649 527.717285,858.075806 529.004272,853.895569 
	C529.539307,852.157776 530.404114,850.513245 531.201599,848.866394 
	C532.615479,845.946899 534.303223,846.042419 535.812195,848.715393 
	C536.870422,850.589844 537.566956,852.665161 538.485840,854.622253 
	C540.590210,859.104431 543.143921,859.843567 548.697327,857.092163 
	C545.079651,854.921692 539.144409,853.871887 542.126099,848.204712 
	C543.723083,845.169373 547.315186,846.608582 550.196655,847.248047 
	C550.019104,850.584106 546.524170,848.369141 545.586365,850.700195 
	C546.335632,854.055359 552.831665,852.664307 551.109558,858.936829 
	C554.252258,855.036194 554.950867,851.716614 556.385742,848.758484 
	C557.475220,846.512451 559.383545,845.309326 560.791565,847.879700 
	C562.875244,851.683228 564.149109,855.930298 565.747681,859.938354 
	C563.300293,860.954651 562.863037,859.587463 562.118530,858.806580 
	C560.490601,857.098938 558.012573,856.619324 556.739258,858.109375 
	C552.609497,862.941833 547.268188,860.953674 542.345825,861.334290 
	C540.620850,861.467712 539.016663,860.958435 537.880005,859.551208 
	C535.077209,856.081177 532.365051,856.827209 529.419556,859.459167 
	C525.693787,862.788269 521.184204,861.724609 517.139709,860.645203 
	C513.739319,859.737732 513.502380,856.225830 513.562500,853.131348 
	C513.639343,849.176575 515.703186,846.999390 520.077209,846.649414 
z"/>
<path fill="#000000" opacity="1.000000" stroke="none" 
	d="
M569.356873,706.404541 
	C567.531250,706.917053 566.076965,707.170715 564.777832,705.702209 
	C564.432678,702.889587 567.002258,701.533691 568.265381,699.555969 
	C570.580505,695.931030 573.281250,692.554932 575.735046,689.015320 
	C578.864563,684.500793 583.120361,683.346252 588.001221,685.800537 
	C592.666260,688.146240 592.377625,694.693359 587.180542,697.952087 
	C583.975159,699.961914 580.354431,701.312134 576.911255,702.939453 
	C574.516785,704.071167 572.107056,705.170349 569.356873,706.404541 
z"/>
<path fill="#000000" opacity="1.000000" stroke="none" 
	d="
M471.473267,859.298889 
	C467.993927,862.776245 465.003632,862.220703 459.127991,857.264221 
	C453.595093,863.757324 448.222504,862.203796 443.808777,857.411743 
	C440.618561,861.849915 438.102661,862.484741 432.545929,860.133667 
	C433.905762,857.113281 437.859528,860.276611 439.290619,857.063599 
	C437.238678,854.280334 429.545197,854.347778 433.507812,848.269775 
	C435.483215,845.239868 439.152557,846.290283 442.372406,847.742981 
	C440.731628,850.574158 437.478760,848.023132 435.919739,850.652527 
	C437.113770,853.419189 440.038605,853.117493 442.180115,854.130066 
	C449.175720,844.707031 453.472687,843.918152 458.944336,851.192078 
	C461.701569,849.091797 463.902222,845.651855 468.175323,846.614441 
	C469.598724,846.935120 471.237610,846.746460 471.548981,848.777405 
	C470.400848,850.587585 468.818909,849.265137 467.479523,849.366150 
	C464.313263,849.604919 462.414246,851.214417 462.479462,854.371155 
	C462.541290,857.365784 464.370667,858.801697 467.445923,858.568970 
	C468.742889,858.470825 470.106323,858.116760 471.473267,859.298889 
M446.602753,853.644348 
	C446.898682,856.647583 448.334290,858.597351 451.537720,858.702576 
	C453.940613,858.781494 455.156586,857.301819 455.481812,855.105286 
	C455.802734,852.937439 455.944763,850.558533 453.382141,849.655212 
	C450.231720,848.544678 447.929382,849.757874 446.602753,853.644348 
z"/>
<path fill="#000000" opacity="1.000000" stroke="none" 
	d="
M498.825195,858.327881 
	C501.565247,859.311096 504.410522,857.871399 506.861664,859.884338 
	C501.467255,862.537842 492.813782,861.781494 488.765167,858.589905 
	C486.372375,856.703552 484.004852,857.253296 482.088684,859.253418 
	C480.244751,861.178101 478.198395,861.966736 475.837952,860.833130 
	C473.452789,859.687683 474.390717,857.358704 474.574371,855.468445 
	C474.843536,852.697449 472.916595,849.579163 475.634308,847.060425 
	C478.109406,848.178650 477.151062,850.271240 477.377899,851.935486 
	C477.615509,853.678894 477.021088,855.559509 478.303650,857.611755 
	C482.314117,854.671692 481.122833,848.531067 485.821686,846.276123 
	C489.819946,849.398315 488.827271,855.447449 493.125275,858.557007 
	C496.578949,854.791870 492.521149,849.950439 495.323639,845.915588 
	C498.866913,849.664673 495.544067,854.728455 498.825195,858.327881 
z"/>
<path fill="#000000" opacity="1.000000" stroke="none" 
	d="
M408.765320,848.932251 
	C405.852173,850.298035 406.530029,852.674866 406.268097,854.756226 
	C406.019897,856.728638 407.228516,859.107727 404.730804,860.737122 
	C402.342621,858.760132 402.966797,856.129578 403.339569,853.838562 
	C403.941010,850.142334 402.369446,848.771912 399.007721,849.199280 
	C396.189514,849.557556 392.716095,847.792542 390.599060,851.236633 
	C392.198944,853.936523 395.352234,851.583008 397.075104,853.854370 
	C396.091156,857.055664 391.315704,853.687805 390.555603,857.347534 
	C392.251221,860.430664 396.102875,857.332764 397.965149,859.904236 
	C391.665894,863.520935 387.869049,861.648926 387.778168,854.891418 
	C387.666992,846.623047 385.716431,846.555969 395.901215,846.651733 
	C399.559753,846.686218 403.221527,846.617371 406.875305,846.761169 
	C407.902893,846.801636 409.976929,846.253357 408.765320,848.932251 
z"/>
<path fill="#000000" opacity="1.000000" stroke="none" 
	d="
M423.020721,860.492798 
	C414.822845,862.265625 410.700439,859.820312 411.039612,853.757874 
	C411.208832,850.732605 412.484039,848.021179 415.396698,847.023438 
	C418.222321,846.055542 421.428131,845.845337 423.863434,848.216797 
	C426.031647,850.328064 426.755646,853.034668 425.896729,856.027710 
	C425.431244,857.649658 424.716492,859.144226 423.020721,860.492798 
M417.042023,858.550415 
	C419.420288,858.871948 421.828339,859.198914 422.768921,856.157288 
	C423.435730,854.001099 423.657104,851.817566 421.659515,850.204407 
	C420.062836,848.915222 418.183075,849.101135 416.475922,849.960144 
	C413.545715,851.434448 413.526794,854.749329 417.042023,858.550415 
z"/>
<path fill="#000000" opacity="1.000000" stroke="none" 
	d="
M361.508911,853.847046 
	C362.937286,847.518921 366.197571,845.373108 371.461914,846.896851 
	C374.960785,847.909668 377.214325,853.074524 376.009277,857.338684 
	C375.345398,859.687805 373.748016,861.002686 371.357605,861.215393 
	C368.154083,861.500427 364.963043,861.592896 362.831238,858.467712 
	C361.955902,857.184448 361.638123,855.739868 361.508911,853.847046 
M373.013245,853.664368 
	C372.806427,850.663086 371.359680,848.997375 368.203400,849.479065 
	C365.464813,849.896973 364.192932,851.740051 364.354919,854.390198 
	C364.501099,856.781555 365.762939,858.404480 368.338257,858.679077 
	C371.468781,859.012695 373.018768,857.596130 373.013245,853.664368 
z"/>
<path fill="#000000" opacity="1.000000" stroke="none" 
	d="
M358.712616,857.549011 
	C359.041046,858.781799 360.017456,859.521301 359.330719,860.717529 
	C356.431091,861.739624 356.403778,858.135559 354.475769,857.574219 
	C351.824280,856.802429 351.938812,860.334229 349.554718,860.557678 
	C348.045044,856.588135 348.568420,852.481628 349.263885,848.557556 
	C349.785797,845.612976 352.731567,846.810059 354.713531,846.663147 
	C357.080627,846.487671 358.788788,847.243103 359.446503,849.932495 
	C360.085266,852.544495 358.900208,854.793884 358.712616,857.549011 
M355.711151,854.050842 
	C357.106812,852.239197 357.605804,850.415344 354.987885,849.401367 
	C353.401794,848.786987 352.008820,849.622192 351.673676,851.369751 
	C351.140808,854.148499 352.602509,854.907837 355.711151,854.050842 
z"/>
<path fill="#000000" opacity="1.000000" stroke="none" 
	d="
M335.096405,860.645447 
	C334.815979,857.347534 334.663147,854.362305 334.701752,851.379639 
	C334.724091,849.653381 334.185181,847.215027 336.702148,846.944031 
	C339.530304,846.639587 342.804382,845.461426 345.069458,848.314209 
	C346.629089,850.278381 346.737518,852.632751 345.443390,854.865479 
	C345.047485,855.548462 344.351501,856.549255 343.779480,856.558411 
	C340.170837,856.616211 337.873444,859.016174 335.096405,860.645447 
M343.399780,852.936035 
	C344.076508,850.013123 342.695984,848.970032 339.969391,849.255371 
	C337.900452,849.471924 336.886292,850.924744 337.561829,852.675049 
	C338.723663,855.685425 340.919189,855.044250 343.399780,852.936035 
z"/>
<path fill="#000000" opacity="1.000000" stroke="none" 
	d="
M385.567383,856.603821 
	C383.845154,861.716675 383.293396,861.975525 378.032288,860.053467 
	C380.334045,858.473328 383.021606,857.684448 382.823059,854.109985 
	C382.651794,851.026306 381.420563,849.312073 378.659454,848.186279 
	C383.507507,845.382629 385.279938,846.258789 385.544891,851.275818 
	C385.631592,852.917664 385.611023,854.565125 385.567383,856.603821 
z"/>
</svg>