<?xml version="1.0" encoding="UTF-8"?>
<svg id="Camada_1" data-name="Camada 1" xmlns="http://www.w3.org/2000/svg" viewBox="0 0 600 600">
  <defs>
    <style>
      .cls-1 {
        letter-spacing: 0em;
      }

      .cls-2 {
        font-size: 69.14px;
      }

      .cls-2, .cls-3 {
        font-family: BauerBodoni-Black, 'Bauer Bodoni';
        font-weight: 800;
      }

      .cls-2, .cls-3, .cls-4 {
        fill: #1d1d1b;
      }

      .cls-5 {
        letter-spacing: -.02em;
      }

      .cls-6 {
        letter-spacing: -.02em;
      }

      .cls-7 {
        stroke: #1d1d1b;
        stroke-width: 5px;
      }

      .cls-7, .cls-8 {
        fill: none;
        stroke-miterlimit: 10;
      }

      .cls-9 {
        letter-spacing: 0em;
      }

      .cls-10 {
        letter-spacing: .02em;
      }

      .cls-3 {
        font-size: 68.05px;
      }

      .cls-11 {
        letter-spacing: 0em;
      }

      .cls-8 {
        stroke: #db9259;
        stroke-width: 3px;
      }

      .cls-4 {
        font-family: Montserrat-Light, Montserrat;
        font-size: 12px;
        font-weight: 300;
      }

      .cls-12 {
        letter-spacing: -.01em;
      }

      .cls-13 {
        letter-spacing: 0em;
      }
    </style>
  </defs>
  <text class="cls-2" transform="translate(180.18 152.22)"><tspan x="0" y="0">UNIÃO</tspan></text>
  <text class="cls-3" transform="translate(108.55 471.72)"><tspan x="0" y="0">SOLIDÁRIA</tspan></text>
  <circle class="cls-7" cx="300" cy="300" r="296.91"/>
  <text class="cls-4" transform="translate(189.85 504.98)"><tspan class="cls-12" x="0" y="0">P</tspan><tspan class="cls-11" x="8.46" y="0">R</tspan><tspan class="cls-6" x="17.1" y="0">O</tspan><tspan class="cls-1" x="26.98" y="0">JE</tspan><tspan class="cls-13" x="40.9" y="0">T</tspan><tspan class="cls-1" x="47.53" y="0">O SOCIA</tspan><tspan class="cls-10" x="98.63" y="0">L</tspan><tspan class="cls-9" x="105.89" y="0">: </tspan><tspan class="cls-5" x="111.37" y="0">C</tspan><tspan x="119.73" y="0">ASA MARIA MAIA</tspan></text>
  <g>
    <g>
      <circle class="cls-8" cx="300.52" cy="184.38" r="18.25"/>
      <path class="cls-8" d="M241.49,256.94c5.68-.49,7.75-4.54,14.86-10.21,7.63-6.09,17.86-11.48,19.84-9.47,2.31,2.33-8.63,12.56-5.45,18.46,1.99,3.68,8.19,3.24,22.64,3.08,29.61-.34,36.83,1.14,38.88-3.2,3.07-6.49-9.44-17.45-7.38-19.44,1.85-1.79,12.89,6.23,16,8.49,10.97,7.98,12.61,11.81,17.89,11.79,4.82-.02,10.28-3.25,12.45-8.14.31-.7,1.39-3.22.95-6.36-.9-6.36-7.33-10.31-11.5-12.77-14.34-8.41-29.92-15.39-37.87-18.82-2.16-.5-4.85-.92-7.96-.9-5.94.03-10.68,1.6-13.64,2.88-1.81-.65-3.89-1.27-6.22-1.73-4.74-.94-8.93-.94-12.15-.66-5.79.94-12.53,2.58-19.75,5.48-7.54,3.03-29.28,11.76-32.82,27.62-.46,2.05-1.43,6.72,1.21,10.19,3.22,4.21,9.58,3.75,10.02,3.72Z"/>
    </g>
    <g>
      <circle class="cls-8" cx="402.41" cy="365.52" r="18.25"/>
      <path class="cls-8" d="M373.11,276.69c-2.65,5.05-.35,8.98.59,18.02,1.01,9.71.04,21.23-2.71,21.82-3.21.69-5.93-14.05-12.61-14.54-4.18-.31-7.14,5.15-14.79,17.41-15.67,25.12-20.81,30.41-18.26,34.47,3.81,6.08,19.78,1.45,20.35,4.26.51,2.53-12.19,7.5-15.77,8.9-12.64,4.94-16.75,4.25-19.57,8.72-2.58,4.07-2.8,10.41.15,14.87.42.64,1.96,2.91,4.84,4.23,5.84,2.67,12.64-.61,16.95-2.81,14.82-7.55,29.09-16.91,36.26-21.75,1.59-1.55,3.39-3.59,5.05-6.22,3.18-5.02,4.4-9.86,4.92-13.04,1.52-1.17,3.16-2.59,4.81-4.3,3.35-3.49,5.6-7.02,7.1-9.88,2.33-5.38,4.58-11.95,6.03-19.59,1.51-7.98,5.88-31-5.57-42.54-1.48-1.49-4.89-4.83-9.24-4.47-5.28.44-8.33,6.05-8.53,6.43Z"/>
    </g>
    <g>
      <circle class="cls-8" cx="197.59" cy="360.86" r="18.25"/>
      <path class="cls-8" d="M289.09,380.28c-3.03-4.83-7.58-4.83-15.87-8.56-8.9-4.01-18.36-10.66-17.48-13.33,1.02-3.12,15.12,1.95,18.91-3.57,2.37-3.45-.85-8.77-7.59-21.55-13.81-26.19-15.79-33.29-20.59-33.14-7.17.23-11.22,16.36-13.93,15.44-2.44-.83-.34-14.31.26-18.11,2.1-13.4,4.76-16.61,2.33-21.3-2.22-4.28-7.58-7.66-12.92-7.36-.77.04-3.5.23-6.09,2.06-5.25,3.7-5.84,11.22-6.11,16.06-.94,16.6-.04,33.65.53,42.28.54,2.15,1.4,4.74,2.83,7.49,2.73,5.27,6.3,8.77,8.79,10.82.24,1.91.64,4.04,1.29,6.32,1.32,4.65,3.24,8.37,4.96,11.11,3.48,4.72,8.01,9.98,13.88,15.08,6.13,5.33,23.82,20.69,39.56,16.61,2.03-.53,6.64-1.79,8.51-5.73,2.28-4.79-1.03-10.24-1.26-10.61Z"/>
    </g>
    <path class="cls-8" d="M301.26,286.84c4.35-7.28,11.72-11.26,18.21-9.97,5.82,1.16,9.32,6.23,9.6,6.64,2.94,4.39,3.72,10.18,3.94,12.06h0c.56,4.75-2.04,13.43-8.37,21.53-7.75,9.92-17.8,14.77-23.26,16.92-4.9-1.53-15.76-5.73-23.62-16.56-3.18-4.38-10.21-14.05-7.51-25.35.34-1.43,3.77-14.91,14.27-16,6.44-.67,13.21,3.57,16.73,10.71Z"/>
  </g>
</svg>